<svg xmlns="http://www.w3.org/2000/svg" version="1.0" width="506.000000pt" height="493.000000pt" viewBox="0 0 506.000000 493.000000" preserveAspectRatio="xMidYMid meet">

<g transform="translate(0.000000,493.000000) scale(0.100000,-0.100000)" fill="#7dd3fc" stroke="none">
<path d="M2446 3919 c-128 -17 -291 -80 -411 -160 -416 -277 -566 -786 -368 -1247 58 -134 150 -254 242 -313 38 -25 55 -29 111 -29 58 0 72 4 108 30 45 32 63 67 271 507 132 280 170 336 284 413 75 50 149 72 257 76 264 11 256 10 335 48 111 52 167 113 240 261 33 66 66 136 74 155 8 19 38 85 67 145 29 61 50 113 47 118 -6 10 -1173 6 -1257 -4z" fill="#7dd3fc"/>
<path d="M2975 2790 c-81 -12 -101 -33 -175 -185 -75 -154 -142 -296 -202 -424 -90 -195 -166 -294 -276 -358 -88 -52 -145 -64 -323 -72 -166 -7 -167 -7 -240 -43 -82 -41 -154 -107 -200 -183 -64 -109 -240 -478 -231 -487 6 -6 271 -8 648 -5 735 4 716 2 919 101 349 171 559 515 558 916 -1 242 -75 444 -227 615 -92 105 -160 138 -251 125z" fill="#7dd3fc"/>
</g>
</svg>
